<?xml version="1.0" encoding="UTF-8"?>
<!DOCTYPE svg PUBLIC "-//W3C//DTD SVG 1.1//EN" "http://www.w3.org/Graphics/SVG/1.1/DTD/svg11.dtd">
<svg xmlns="http://www.w3.org/2000/svg" version="1.1" width="512px" height="512px" viewBox="0 0 512 512" style="shape-rendering:geometricPrecision; text-rendering:geometricPrecision; image-rendering:optimizeQuality; fill-rule:evenodd; clip-rule:evenodd" xmlns:xlink="http://www.w3.org/1999/xlink">
<g><path style="opacity:0.988" fill="#010101" d="M 232.5,7.5 C 247.837,7.33341 263.17,7.50008 278.5,8C 298.271,9.18998 316.605,14.8567 333.5,25C 342.053,31.2206 347.887,39.3872 351,49.5C 351.667,78.5 351.667,107.5 351,136.5C 347.5,148.501 339.667,155.834 327.5,158.5C 328.843,171.318 324.509,181.818 314.5,190C 308.599,194.229 302.432,198.063 296,201.5C 295.501,205.821 295.334,210.154 295.5,214.5C 361.756,214.353 403.922,246.02 422,309.5C 430.222,339.718 432.889,370.384 430,401.5C 425.581,430.253 409.415,448.753 381.5,457C 374.284,459.138 366.951,460.638 359.5,461.5C 359.5,475.5 359.5,489.5 359.5,503.5C 290.167,503.5 220.833,503.5 151.5,503.5C 151.5,489.5 151.5,475.5 151.5,461.5C 102.046,456.213 78.046,428.713 79.5,379C 80.1526,346.071 86.3193,314.238 98,283.5C 122.25,235.77 161.416,212.77 215.5,214.5C 215.666,210.154 215.499,205.821 215,201.5C 200.818,195.915 190.485,186.249 184,172.5C 183.501,167.845 183.334,163.179 183.5,158.5C 171.333,155.834 163.5,148.501 160,136.5C 159.333,107.167 159.333,77.8333 160,48.5C 164.106,37.7759 170.94,29.2759 180.5,23C 196.926,14.3985 214.26,9.2318 232.5,7.5 Z"/></g>
<g><path style="opacity:1" fill="#646c76" d="M 238.5,23.5 C 263.367,22.0477 287.7,24.881 311.5,32C 322.104,35.7097 329.937,42.543 335,52.5C 335.667,68.1667 335.667,83.8333 335,99.5C 332.667,98.5 330.333,97.5 328,96.5C 327.667,83.1667 327.333,69.8333 327,56.5C 315.508,66.5791 302.175,72.5791 287,74.5C 281.489,74.219 276.322,72.719 271.5,70C 264.978,64.8115 259.145,58.9782 254,52.5C 249.28,54.4431 244.78,56.7764 240.5,59.5C 243.99,65.6358 248.323,71.1358 253.5,76C 238.514,81.0311 228.681,76.1978 224,61.5C 223.501,57.1794 223.334,52.8461 223.5,48.5C 218.153,47.9267 212.82,47.26 207.5,46.5C 207.5,49.8333 207.5,53.1667 207.5,56.5C 195.883,57.5588 188.049,63.5588 184,74.5C 183.831,81.8559 183.331,89.1892 182.5,96.5C 180.189,97.2135 178.022,98.2135 176,99.5C 175.333,83.8333 175.333,68.1667 176,52.5C 179.066,46.0997 183.566,40.933 189.5,37C 204.963,28.8872 221.296,24.3872 238.5,23.5 Z"/></g>
<g><path style="opacity:1" fill="#edceb2" d="M 208.5,71.5 C 209.496,71.4142 210.329,71.7476 211,72.5C 218.885,89.1499 232.052,95.9832 250.5,93C 257.849,91.8711 265.016,90.0378 272,87.5C 285.019,91.7023 297.852,91.0356 310.5,85.5C 311.667,112.827 311.833,140.161 311,167.5C 303.645,179.771 292.812,186.938 278.5,189C 259.2,193.089 240.2,192.089 221.5,186C 212.169,182.335 205.002,176.168 200,167.5C 199.333,137.5 199.333,107.5 200,77.5C 202.322,74.6047 205.155,72.6047 208.5,71.5 Z"/></g>
<g><path style="opacity:1" fill="#070605" d="M 211.5,106.5 C 215.268,108.377 219.268,109.71 223.5,110.5C 227.275,110.279 230.609,108.946 233.5,106.5C 236.907,109.618 240.407,112.618 244,115.5C 244.667,116.5 244.667,117.5 244,118.5C 229.856,129.445 216.023,129.111 202.5,117.5C 205.747,113.986 208.747,110.32 211.5,106.5 Z"/></g>
<g><path style="opacity:1" fill="#070605" d="M 275.5,106.5 C 279.268,108.377 283.268,109.71 287.5,110.5C 291.275,110.279 294.609,108.946 297.5,106.5C 300.907,109.618 304.407,112.618 308,115.5C 308.667,116.5 308.667,117.5 308,118.5C 293.856,129.445 280.023,129.111 266.5,117.5C 269.747,113.986 272.747,110.32 275.5,106.5 Z"/></g>
<g><path style="opacity:1" fill="#e7c8ad" d="M 182.5,113.5 C 183.658,122.657 183.824,131.991 183,141.5C 177.483,138.302 174.983,133.469 175.5,127C 175.356,121.119 177.689,116.619 182.5,113.5 Z"/></g>
<g><path style="opacity:1" fill="#e7c8ad" d="M 327.5,113.5 C 333.096,116.182 335.762,120.682 335.5,127C 336.011,133.465 333.511,138.299 328,141.5C 327.5,132.173 327.334,122.839 327.5,113.5 Z"/></g>
<g><path style="opacity:1" fill="#040303" d="M 223.5,159.5 C 228.875,159.172 234.208,159.505 239.5,160.5C 243.408,165.919 248.741,168.253 255.5,167.5C 262.259,168.253 267.592,165.919 271.5,160.5C 276.792,159.505 282.125,159.172 287.5,159.5C 286.476,170.355 280.809,177.522 270.5,181C 257.129,185.429 244.462,184.096 232.5,177C 227.245,172.323 224.245,166.49 223.5,159.5 Z"/></g>
<g><path style="opacity:1" fill="#eeceb2" d="M 231.5,205.5 C 247.489,208.12 263.489,208.12 279.5,205.5C 282.408,216.298 279.075,224.132 269.5,229C 260.138,232.242 250.805,232.242 241.5,229C 237.759,227.262 234.592,224.762 232,221.5C 231.501,216.177 231.334,210.844 231.5,205.5 Z"/></g>
<g><path style="opacity:1" fill="#73aeef" d="M 199.5,230.5 C 206.2,230.17 212.866,230.503 219.5,231.5C 228.454,242.106 239.954,247.439 254,247.5C 269.113,248.021 281.613,242.687 291.5,231.5C 343.645,227.813 380.145,249.813 401,297.5C 412.653,332.044 416.653,367.378 413,403.5C 407.141,425.386 392.975,438.552 370.5,443C 361.563,444.694 352.563,445.86 343.5,446.5C 343.334,438.16 343.5,429.827 344,421.5C 368.853,416.15 382.02,400.817 383.5,375.5C 378.167,375.5 372.833,375.5 367.5,375.5C 367.529,383.11 365.029,389.777 360,395.5C 359.5,386.173 359.334,376.839 359.5,367.5C 357.5,367.5 355.5,367.5 353.5,367.5C 358.112,338.438 363.112,309.438 368.5,280.5C 333.784,274.821 299.117,268.821 264.5,262.5C 262.296,276.187 259.963,289.853 257.5,303.5C 255.856,303.714 254.356,303.38 253,302.5C 247.99,284.486 242.99,266.486 238,248.5C 237.161,247.376 235.994,246.709 234.5,246.5C 201.56,255.623 168.56,264.623 135.5,273.5C 135.167,274.167 134.833,274.833 134.5,275.5C 142.012,305.881 149.679,336.215 157.5,366.5C 155.604,367.466 153.604,367.799 151.5,367.5C 151.666,376.839 151.5,386.173 151,395.5C 145.843,389.866 143.343,383.199 143.5,375.5C 138.167,375.5 132.833,375.5 127.5,375.5C 128.298,397.284 138.965,411.618 159.5,418.5C 159.5,427.5 159.5,436.5 159.5,445.5C 141.615,445.261 125.615,439.761 111.5,429C 99.7201,414.918 94.3868,398.585 95.5,380C 96.2862,351.783 101.119,324.283 110,297.5C 126.628,257.355 156.461,235.021 199.5,230.5 Z"/></g>
<g><path style="opacity:1" fill="#f3be27" d="M 222.5,265.5 C 223.833,265.5 225.167,265.5 226.5,265.5C 226.873,268.574 227.539,271.574 228.5,274.5C 205.768,280.362 183.102,286.529 160.5,293C 158.527,293.495 156.527,293.662 154.5,293.5C 154.037,290.518 153.704,287.518 153.5,284.5C 176.763,278.604 199.763,272.271 222.5,265.5 Z"/></g>
<g><path style="opacity:1" fill="#c9ced5" d="M 277.5,281.5 C 301.513,285.407 325.513,289.407 349.5,293.5C 348.221,301.789 347.221,310.123 346.5,318.5C 332.467,316.995 318.467,315.162 304.5,313C 303.549,309.943 303.216,306.777 303.5,303.5C 293.5,303.5 283.5,303.5 273.5,303.5C 274.449,296.09 275.782,288.756 277.5,281.5 Z"/></g>
<g><path style="opacity:1" fill="#f9d46e" d="M 230.5,289.5 C 231.5,289.5 232.5,289.5 233.5,289.5C 234.503,294.173 235.503,298.839 236.5,303.5C 226.833,303.5 217.167,303.5 207.5,303.5C 207.5,324.833 207.5,346.167 207.5,367.5C 196.147,367.832 184.814,367.499 173.5,366.5C 167.931,347.411 163.598,328.244 160.5,309C 184.173,303.306 207.507,296.806 230.5,289.5 Z"/></g>
<g><path style="opacity:1" fill="#fb6e50" d="M 223.5,319.5 C 244.833,319.5 266.167,319.5 287.5,319.5C 287.5,324.833 287.5,330.167 287.5,335.5C 266.167,335.5 244.833,335.5 223.5,335.5C 223.5,330.167 223.5,324.833 223.5,319.5 Z"/></g>
<g><path style="opacity:1" fill="#e5e8ec" d="M 303.5,329.5 C 316.546,330.841 329.546,332.508 342.5,334.5C 340.367,345.431 338.7,356.431 337.5,367.5C 326.167,367.5 314.833,367.5 303.5,367.5C 303.5,354.833 303.5,342.167 303.5,329.5 Z"/></g>
<g><path style="opacity:1" fill="#fe826d" d="M 223.5,351.5 C 244.833,351.5 266.167,351.5 287.5,351.5C 287.5,356.833 287.5,362.167 287.5,367.5C 266.167,367.5 244.833,367.5 223.5,367.5C 223.5,362.167 223.5,356.833 223.5,351.5 Z"/></g>
<g><path style="opacity:1" fill="#ce9d75" d="M 167.5,383.5 C 226.167,383.5 284.833,383.5 343.5,383.5C 343.5,390.833 343.5,398.167 343.5,405.5C 340.833,405.833 338.167,406.167 335.5,406.5C 334.612,399.11 330.612,394.277 323.5,392C 315.167,391.333 306.833,391.333 298.5,392C 291.477,394.846 287.81,400.013 287.5,407.5C 276.717,405.144 268.884,408.81 264,418.5C 263.333,429.5 263.333,440.5 264,451.5C 265.743,456.91 269.243,460.744 274.5,463C 297.512,463.733 320.512,463.566 343.5,462.5C 343.5,470.833 343.5,479.167 343.5,487.5C 284.833,487.5 226.167,487.5 167.5,487.5C 167.5,479.5 167.5,471.5 167.5,463.5C 190.169,463.667 212.836,463.5 235.5,463C 241.333,461.167 245.167,457.333 247,451.5C 247.667,440.5 247.667,429.5 247,418.5C 242.06,409.005 234.226,405.339 223.5,407.5C 221.102,394.274 213.102,388.941 199.5,391.5C 186.849,389.475 178.849,394.475 175.5,406.5C 172.794,406.425 170.127,406.092 167.5,405.5C 167.5,398.167 167.5,390.833 167.5,383.5 Z"/></g>
<g><path style="opacity:1" fill="#efcfb3" d="M 191.5,407.5 C 196.833,407.5 202.167,407.5 207.5,407.5C 207.5,412.833 207.5,418.167 207.5,423.5C 215.5,423.5 223.5,423.5 231.5,423.5C 231.5,431.5 231.5,439.5 231.5,447.5C 212.833,447.5 194.167,447.5 175.5,447.5C 175.5,439.5 175.5,431.5 175.5,423.5C 180.833,423.5 186.167,423.5 191.5,423.5C 191.5,418.167 191.5,412.833 191.5,407.5 Z"/></g>
<g><path style="opacity:1" fill="#efcfb3" d="M 303.5,407.5 C 308.833,407.5 314.167,407.5 319.5,407.5C 319.5,412.833 319.5,418.167 319.5,423.5C 322.167,423.5 324.833,423.5 327.5,423.5C 327.5,431.5 327.5,439.5 327.5,447.5C 311.5,447.5 295.5,447.5 279.5,447.5C 279.5,439.5 279.5,431.5 279.5,423.5C 287.5,423.5 295.5,423.5 303.5,423.5C 303.5,418.167 303.5,412.833 303.5,407.5 Z"/></g>
</svg>
