<?xml version="1.0" encoding="UTF-8"?>
<!DOCTYPE svg PUBLIC "-//W3C//DTD SVG 1.1//EN" "http://www.w3.org/Graphics/SVG/1.1/DTD/svg11.dtd">
<svg xmlns="http://www.w3.org/2000/svg" version="1.1" width="512px" height="512px" viewBox="0 0 512 512" style="shape-rendering:geometricPrecision; text-rendering:geometricPrecision; image-rendering:optimizeQuality; fill-rule:evenodd; clip-rule:evenodd" xmlns:xlink="http://www.w3.org/1999/xlink">
<g><path style="opacity:0.995" fill="#000000" d="M 113.5,-0.5 C 204.833,-0.5 296.167,-0.5 387.5,-0.5C 443.901,8.39283 482.735,39.3928 504,92.5C 507.32,102.775 509.82,113.108 511.5,123.5C 511.5,245.5 511.5,367.5 511.5,489.5C 509.546,494.065 507.046,498.398 504,502.5C 499.657,506.415 494.823,509.415 489.5,511.5C 398.167,511.5 306.833,511.5 215.5,511.5C 212.07,509.065 210.404,505.731 210.5,501.5C 211.172,496.661 213.838,493.495 218.5,492C 307.5,491.667 396.5,491.333 485.5,491C 487.333,489.167 489.167,487.333 491,485.5C 491.994,367.444 491.661,249.444 490,131.5C 487.341,125.508 482.841,121.675 476.5,120C 457.167,119.667 437.833,119.333 418.5,119C 403.006,116.839 394.173,108.006 392,92.5C 391.667,73.1667 391.333,53.8333 391,34.5C 388.833,27 384,22.1667 376.5,20C 290.167,19.3333 203.833,19.3333 117.5,20C 115.667,21.8333 113.833,23.6667 112,25.5C 111.5,94.1659 111.333,162.833 111.5,231.5C 151.501,231.333 191.501,231.5 231.5,232C 236.718,233.051 239.718,236.218 240.5,241.5C 239.731,246.769 236.731,249.936 231.5,251C 162.833,251.333 94.1667,251.667 25.5,252C 23,253.167 21.1667,255 20,257.5C 19.3333,300.167 19.3333,342.833 20,385.5C 21.5,387.667 23.3333,389.5 25.5,391C 128.167,391.667 230.833,391.667 333.5,391C 335.333,389.167 337.167,387.333 339,385.5C 339.667,342.833 339.667,300.167 339,257.5C 337.5,255.333 335.667,253.5 333.5,252C 321.5,251.667 309.5,251.333 297.5,251C 292.824,249.493 290.158,246.327 289.5,241.5C 290.172,236.661 292.838,233.495 297.5,232C 309.167,231.333 320.833,231.333 332.5,232C 348.006,234.173 356.839,243.006 359,258.5C 359.667,300.5 359.667,342.5 359,384.5C 356.833,400 348,408.833 332.5,411C 258.834,411.5 185.167,411.667 111.5,411.5C 111.333,436.169 111.5,460.836 112,485.5C 113.833,487.333 115.667,489.167 117.5,491C 130.556,491.077 143.556,491.744 156.5,493C 159.563,495.03 161.229,497.864 161.5,501.5C 161.596,505.731 159.93,509.065 156.5,511.5C 142.167,511.5 127.833,511.5 113.5,511.5C 102.517,508.016 95.3501,500.682 92,489.5C 91.5,463.502 91.3334,437.502 91.5,411.5C 68.1643,411.667 44.831,411.5 21.5,411C 10.3177,407.65 2.98437,400.483 -0.5,389.5C -0.5,344.167 -0.5,298.833 -0.5,253.5C 2.98437,242.517 10.3177,235.35 21.5,232C 44.831,231.5 68.1643,231.333 91.5,231.5C 91.3333,161.499 91.5,91.4992 92,21.5C 95.3501,10.3177 102.517,2.98437 113.5,-0.5 Z"/></g>
<g><path style="opacity:1" fill="#efeff9" d="M 210.5,501.5 C 207.833,501.5 205.167,501.5 202.5,501.5C 198.446,490.564 191.946,488.897 183,496.5C 182.392,498.154 181.892,499.821 181.5,501.5C 174.833,501.5 168.167,501.5 161.5,501.5C 161.229,497.864 159.563,495.03 156.5,493C 143.556,491.744 130.556,491.077 117.5,491C 115.667,489.167 113.833,487.333 112,485.5C 111.5,460.836 111.333,436.169 111.5,411.5C 185.167,411.667 258.834,411.5 332.5,411C 348,408.833 356.833,400 359,384.5C 359.667,342.5 359.667,300.5 359,258.5C 356.839,243.006 348.006,234.173 332.5,232C 320.833,231.333 309.167,231.333 297.5,232C 292.838,233.495 290.172,236.661 289.5,241.5C 282.833,241.5 276.167,241.5 269.5,241.5C 266.656,231.491 260.823,229.158 252,234.5C 250.097,236.441 249.264,238.774 249.5,241.5C 246.5,241.5 243.5,241.5 240.5,241.5C 239.718,236.218 236.718,233.051 231.5,232C 191.501,231.5 151.501,231.333 111.5,231.5C 111.333,162.833 111.5,94.1659 112,25.5C 113.833,23.6667 115.667,21.8333 117.5,20C 203.833,19.3333 290.167,19.3333 376.5,20C 384,22.1667 388.833,27 391,34.5C 391.333,53.8333 391.667,73.1667 392,92.5C 394.173,108.006 403.006,116.839 418.5,119C 437.833,119.333 457.167,119.667 476.5,120C 482.841,121.675 487.341,125.508 490,131.5C 491.661,249.444 491.994,367.444 491,485.5C 489.167,487.333 487.333,489.167 485.5,491C 396.5,491.333 307.5,491.667 218.5,492C 213.838,493.495 211.172,496.661 210.5,501.5 Z"/></g>
<g><path style="opacity:1" fill="#d5d5e6" d="M 409.5,25.5 C 444.96,38.4597 469.794,62.4597 484,97.5C 484.781,98.9437 484.614,100.277 483.5,101.5C 480.557,100.756 477.557,100.256 474.5,100C 455.5,99.6667 436.5,99.3333 417.5,99C 415.667,97.1667 413.833,95.3333 412,93.5C 411.667,72.8333 411.333,52.1667 411,31.5C 410.187,29.5643 409.687,27.5643 409.5,25.5 Z"/></g>
<g><path style="opacity:1" fill="#010101" d="M 157.5,99.5 C 179.169,99.3334 200.836,99.5 222.5,100C 229.526,101.878 232.026,106.378 230,113.5C 228.52,116.663 226.02,118.496 222.5,119C 200.833,119.667 179.167,119.667 157.5,119C 149.419,116.197 147.419,111.031 151.5,103.5C 153.29,101.684 155.29,100.351 157.5,99.5 Z"/></g>
<g><path style="opacity:1" fill="#010101" d="M 157.5,139.5 C 200.168,139.333 242.835,139.5 285.5,140C 292.92,143.794 294.42,149.294 290,156.5C 288.581,157.46 287.081,158.293 285.5,159C 242.833,159.667 200.167,159.667 157.5,159C 149.419,156.197 147.419,151.031 151.5,143.5C 153.29,141.684 155.29,140.351 157.5,139.5 Z"/></g>
<g><path style="opacity:1" fill="#010101" d="M 157.5,179.5 C 179.169,179.333 200.836,179.5 222.5,180C 229.526,181.878 232.026,186.378 230,193.5C 228.52,196.663 226.02,198.496 222.5,199C 200.833,199.667 179.167,199.667 157.5,199C 149.419,196.197 147.419,191.031 151.5,183.5C 153.29,181.684 155.29,180.351 157.5,179.5 Z"/></g>
<g><path style="opacity:1" fill="#080505" d="M 269.5,241.5 C 266.617,251.018 260.784,253.351 252,248.5C 250.097,246.559 249.264,244.226 249.5,241.5C 249.264,238.774 250.097,236.441 252,234.5C 260.823,229.158 266.656,231.491 269.5,241.5 Z"/></g>
<g><path style="opacity:1" fill="#fb4747" d="M 240.5,241.5 C 243.5,241.5 246.5,241.5 249.5,241.5C 249.264,244.226 250.097,246.559 252,248.5C 260.784,253.351 266.617,251.018 269.5,241.5C 276.167,241.5 282.833,241.5 289.5,241.5C 290.158,246.327 292.824,249.493 297.5,251C 309.5,251.333 321.5,251.667 333.5,252C 335.667,253.5 337.5,255.333 339,257.5C 339.667,300.167 339.667,342.833 339,385.5C 337.167,387.333 335.333,389.167 333.5,391C 230.833,391.667 128.167,391.667 25.5,391C 23.3333,389.5 21.5,387.667 20,385.5C 19.3333,342.833 19.3333,300.167 20,257.5C 21.1667,255 23,253.167 25.5,252C 94.1667,251.667 162.833,251.333 231.5,251C 236.731,249.936 239.731,246.769 240.5,241.5 Z"/></g>
<g><path style="opacity:1" fill="#030100" d="M 46.5,271.5 C 59.8375,271.333 73.1708,271.5 86.5,272C 90.0911,272.579 92.9245,274.412 95,277.5C 95.6667,301.5 95.6667,325.5 95,349.5C 89.3299,365.923 77.8299,373.089 60.5,371C 45.4592,365.722 38.2925,355.222 39,339.5C 41.9188,333.975 46.4188,332.142 52.5,334C 57.414,336.659 59.5807,340.826 59,346.5C 64.3818,353.156 69.7151,353.156 75,346.5C 75.4999,328.17 75.6666,309.836 75.5,291.5C 64.7551,291.929 54.0885,291.429 43.5,290C 36.4222,282.485 37.4222,276.318 46.5,271.5 Z"/></g>
<g><path style="opacity:1" fill="#030000" d="M 285.5,271.5 C 301.802,269.89 312.969,276.557 319,291.5C 320.105,304.294 320.605,317.128 320.5,330C 320.626,342.22 320.126,354.387 319,366.5C 312.731,373.19 306.731,372.857 301,365.5C 300.5,357.173 300.334,348.84 300.5,340.5C 294.833,340.5 289.167,340.5 283.5,340.5C 283.876,349.235 283.376,357.902 282,366.5C 276.206,373.013 270.539,373.013 265,366.5C 263.363,342.23 263.029,317.896 264,293.5C 267.35,282.318 274.517,274.984 285.5,271.5 Z"/></g>
<g><path style="opacity:1" fill="#050101" d="M 149.5,362.5 C 149.5,355.167 149.5,347.833 149.5,340.5C 143.5,340.5 137.5,340.5 131.5,340.5C 131.5,347.833 131.5,355.167 131.5,362.5C 131.276,366.562 129.276,369.395 125.5,371C 119.9,372.395 115.733,370.562 113,365.5C 112.333,341.167 112.333,316.833 113,292.5C 119.454,276.19 131.287,269.69 148.5,273C 160.408,276.909 167.242,285.076 169,297.5C 169.667,319.167 169.667,340.833 169,362.5C 166.086,371.439 160.586,373.606 152.5,369C 150.549,367.266 149.549,365.099 149.5,362.5 Z"/></g>
<g><path style="opacity:1" fill="#040100" d="M 188.5,271.5 C 192.774,271.257 196.441,272.591 199.5,275.5C 205.495,292.318 210.995,309.318 216,326.5C 221.282,309.319 226.949,292.319 233,275.5C 239.37,269.838 245.036,270.505 250,277.5C 250.61,281.236 250.277,284.903 249,288.5C 241.063,314.978 232.729,341.311 224,367.5C 219.578,372.132 214.745,372.632 209.5,369C 207.094,364.792 205.26,360.292 204,355.5C 196.575,330.963 189.075,306.463 181.5,282C 182.074,277.271 184.407,273.771 188.5,271.5 Z"/></g>
<g><path style="opacity:1" fill="#f54545" d="M 148.5,298.5 C 148.5,305.833 148.5,313.167 148.5,320.5C 143.167,320.5 137.833,320.5 132.5,320.5C 131.345,313.345 131.178,306.012 132,298.5C 135.348,290.964 140.348,289.631 147,294.5C 147.791,295.745 148.291,297.078 148.5,298.5 Z"/></g>
<g><path style="opacity:1" fill="#f94646" d="M 288.5,291.5 C 293.543,290.431 297.377,292.097 300,296.5C 300.5,304.493 300.666,312.493 300.5,320.5C 294.833,320.5 289.167,320.5 283.5,320.5C 283.334,312.493 283.5,304.493 284,296.5C 285.366,294.638 286.866,292.972 288.5,291.5 Z"/></g>
<g><path style="opacity:1" fill="#5d1a1a" d="M 148.5,298.5 C 149.492,305.982 149.825,313.648 149.5,321.5C 143.642,321.822 137.975,321.489 132.5,320.5C 137.833,320.5 143.167,320.5 148.5,320.5C 148.5,313.167 148.5,305.833 148.5,298.5 Z"/></g>
<g><path style="opacity:1" fill="#912929" d="M 149.5,362.5 C 148.509,355.687 148.175,348.687 148.5,341.5C 143.167,341.5 137.833,341.5 132.5,341.5C 132.825,348.687 132.491,355.687 131.5,362.5C 131.5,355.167 131.5,347.833 131.5,340.5C 137.5,340.5 143.5,340.5 149.5,340.5C 149.5,347.833 149.5,355.167 149.5,362.5 Z"/></g>
<g><path style="opacity:0.942" fill="#030303" d="M 202.5,501.5 C 201.717,505.605 199.717,508.939 196.5,511.5C 193.167,511.5 189.833,511.5 186.5,511.5C 183.07,509.065 181.404,505.731 181.5,501.5C 181.892,499.821 182.392,498.154 183,496.5C 191.946,488.897 198.446,490.564 202.5,501.5 Z"/></g>
</svg>
