<?xml version="1.0" encoding="UTF-8"?>
<!DOCTYPE svg PUBLIC "-//W3C//DTD SVG 1.1//EN" "http://www.w3.org/Graphics/SVG/1.1/DTD/svg11.dtd">
<svg xmlns="http://www.w3.org/2000/svg" version="1.1" width="512px" height="512px" viewBox="0 0 512 512" style="shape-rendering:geometricPrecision; text-rendering:geometricPrecision; image-rendering:optimizeQuality; fill-rule:evenodd; clip-rule:evenodd" xmlns:xlink="http://www.w3.org/1999/xlink">
<g><path style="opacity:0.998" fill="#202225" d="M 47.5,379.5 C 50.5867,380.053 53.0867,381.72 55,384.5C 55.3333,401.167 55.6667,417.833 56,434.5C 56.8333,436.667 58.3333,438.167 60.5,439C 115.5,439.333 170.5,439.667 225.5,440C 230.29,441.726 232.457,445.226 232,450.5C 232.465,451.931 233.299,453.097 234.5,454C 241.232,455.13 248.065,455.63 255,455.5C 262.242,455.612 269.409,455.112 276.5,454C 278.617,450.453 280.117,446.62 281,442.5C 281.903,441.299 283.069,440.465 284.5,440C 340.558,439.988 396.558,439.321 452.5,438C 453.893,436.829 454.727,435.329 455,433.5C 455.667,319.833 455.667,206.167 455,92.5C 454.167,90.3333 452.667,88.8333 450.5,88C 446.848,87.5014 443.182,87.3347 439.5,87.5C 439.667,103.503 439.5,119.503 439,135.5C 437.52,138.817 435.02,140.817 431.5,141.5C 427.98,140.817 425.48,138.817 424,135.5C 423.5,108.835 423.333,82.1687 423.5,55.5C 371.832,55.3333 320.166,55.5 268.5,56C 267.069,56.4652 265.903,57.2986 265,58.5C 263.837,116.085 263.337,173.752 263.5,231.5C 263.337,289.248 263.837,346.915 265,404.5C 265.903,405.701 267.069,406.535 268.5,407C 320.166,407.5 371.832,407.667 423.5,407.5C 423.333,327.166 423.5,246.833 424,166.5C 425.793,163.692 428.293,162.026 431.5,161.5C 434.754,162.043 437.254,163.71 439,166.5C 439.667,250.167 439.667,333.833 439,417.5C 438.727,419.329 437.893,420.829 436.5,422C 379.558,423.654 322.558,423.988 265.5,423C 261.806,421.802 258.472,419.968 255.5,417.5C 252.112,419.861 248.446,421.694 244.5,423C 188.5,423.667 132.5,423.667 76.5,423C 73.8981,422.065 72.3981,420.232 72,417.5C 71.5,307.501 71.3333,197.501 71.5,87.5C 67.8183,87.3347 64.1516,87.5014 60.5,88C 58.3333,88.8333 56.8333,90.3333 56,92.5C 55.6667,169.167 55.3333,245.833 55,322.5C 53.8761,326.462 51.3761,328.795 47.5,329.5C 44.383,329.358 41.883,328.024 40,325.5C 39.3333,246.5 39.3333,167.5 40,88.5C 45.7476,74.3716 56.2476,68.705 71.5,71.5C 71.3335,62.1607 71.5002,52.8274 72,43.5C 72.5,41.6667 73.6667,40.5 75.5,40C 132.5,39.3333 189.5,39.3333 246.5,40C 249.779,40.9728 252.779,42.4728 255.5,44.5C 258.221,42.4728 261.221,40.9728 264.5,40C 321.5,39.3333 378.5,39.3333 435.5,40C 437.333,40.5 438.5,41.6667 439,43.5C 439.5,52.8274 439.666,62.1607 439.5,71.5C 454.752,68.705 465.252,74.3716 471,88.5C 471.667,205.167 471.667,321.833 471,438.5C 468.167,446.667 462.667,452.167 454.5,455C 401.164,455.167 347.83,455.667 294.5,456.5C 291.694,462.472 287.361,466.972 281.5,470C 272.905,471.123 264.239,471.623 255.5,471.5C 246.761,471.623 238.095,471.123 229.5,470C 223.639,466.972 219.306,462.472 216.5,456.5C 163.17,455.667 109.836,455.167 56.5,455C 48.3333,452.167 42.8333,446.667 40,438.5C 39.3333,420.167 39.3333,401.833 40,383.5C 41.883,380.976 44.383,379.642 47.5,379.5 Z"/></g>
<g><path style="opacity:1" fill="#eaecee" d="M 87.5,55.5 C 139.168,55.3333 190.834,55.5 242.5,56C 243.931,56.4652 245.097,57.2986 246,58.5C 247.163,115.918 247.663,173.418 247.5,231C 247.661,288.89 247.161,346.724 246,404.5C 244.829,405.893 243.329,406.727 241.5,407C 190.168,407.5 138.834,407.667 87.5,407.5C 87.5,290.167 87.5,172.833 87.5,55.5 Z"/></g>
<g><path style="opacity:1" fill="#c1cacf" d="M 431.5,141.5 C 431.5,148.167 431.5,154.833 431.5,161.5C 428.293,162.026 425.793,163.692 424,166.5C 423.5,246.833 423.333,327.166 423.5,407.5C 371.832,407.667 320.166,407.5 268.5,407C 267.069,406.535 265.903,405.701 265,404.5C 263.837,346.915 263.337,289.248 263.5,231.5C 263.337,173.752 263.837,116.085 265,58.5C 265.903,57.2986 267.069,56.4652 268.5,56C 320.166,55.5 371.832,55.3333 423.5,55.5C 423.333,82.1687 423.5,108.835 424,135.5C 425.48,138.817 427.98,140.817 431.5,141.5 Z"/></g>
<g><path style="opacity:1" fill="#222427" d="M 129.5,71.5 C 133.426,71.0466 136.592,72.3799 139,75.5C 145.471,91.9137 152.138,108.247 159,124.5C 159.747,134.048 155.58,137.215 146.5,134C 144.366,131.111 142.699,127.944 141.5,124.5C 134.833,123.167 128.167,123.167 121.5,124.5C 120.301,127.944 118.634,131.111 116.5,134C 109.127,137.148 104.793,134.815 103.5,127C 109.855,111.122 116.355,95.2885 123,79.5C 124.305,76.0386 126.471,73.372 129.5,71.5 Z"/></g>
<g><path style="opacity:1" fill="#5894ef" d="M 431.5,161.5 C 431.5,154.833 431.5,148.167 431.5,141.5C 435.02,140.817 437.52,138.817 439,135.5C 439.5,119.503 439.667,103.503 439.5,87.5C 443.182,87.3347 446.848,87.5014 450.5,88C 452.667,88.8333 454.167,90.3333 455,92.5C 455.667,206.167 455.667,319.833 455,433.5C 454.727,435.329 453.893,436.829 452.5,438C 396.558,439.321 340.558,439.988 284.5,440C 283.069,440.465 281.903,441.299 281,442.5C 280.117,446.62 278.617,450.453 276.5,454C 269.409,455.112 262.242,455.612 255,455.5C 248.065,455.63 241.232,455.13 234.5,454C 233.299,453.097 232.465,451.931 232,450.5C 232.457,445.226 230.29,441.726 225.5,440C 170.5,439.667 115.5,439.333 60.5,439C 58.3333,438.167 56.8333,436.667 56,434.5C 55.6667,417.833 55.3333,401.167 55,384.5C 53.0867,381.72 50.5867,380.053 47.5,379.5C 47.5,375.833 47.5,372.167 47.5,368.5C 54.2132,366.432 56.8799,361.765 55.5,354.5C 56.9018,347.285 54.2351,342.618 47.5,340.5C 47.5,336.833 47.5,333.167 47.5,329.5C 51.3761,328.795 53.8761,326.462 55,322.5C 55.3333,245.833 55.6667,169.167 56,92.5C 56.8333,90.3333 58.3333,88.8333 60.5,88C 64.1516,87.5014 67.8183,87.3347 71.5,87.5C 71.3333,197.501 71.5,307.501 72,417.5C 72.3981,420.232 73.8981,422.065 76.5,423C 132.5,423.667 188.5,423.667 244.5,423C 248.446,421.694 252.112,419.861 255.5,417.5C 258.472,419.968 261.806,421.802 265.5,423C 322.558,423.988 379.558,423.654 436.5,422C 437.893,420.829 438.727,419.329 439,417.5C 439.667,333.833 439.667,250.167 439,166.5C 437.254,163.71 434.754,162.043 431.5,161.5 Z"/></g>
<g><path style="opacity:1" fill="#202225" d="M 284.5,87.5 C 323.501,87.3333 362.501,87.5 401.5,88C 407.462,90.4048 408.962,94.5714 406,100.5C 404.829,101.893 403.329,102.727 401.5,103C 362.5,103.667 323.5,103.667 284.5,103C 277.889,97.798 277.889,92.6314 284.5,87.5 Z"/></g>
<g><path style="opacity:1" fill="#d5d7d9" d="M 131.5,100.5 C 132.864,102.22 133.864,104.22 134.5,106.5C 132.579,107.641 130.579,107.808 128.5,107C 129.793,104.948 130.793,102.781 131.5,100.5 Z"/></g>
<g><path style="opacity:1" fill="#222427" d="M 284.5,117.5 C 323.835,117.333 363.168,117.5 402.5,118C 409.311,123.33 408.977,128.33 401.5,133C 362.833,133.667 324.167,133.667 285.5,133C 277.957,128.165 277.624,122.998 284.5,117.5 Z"/></g>
<g><path style="opacity:1" fill="#232528" d="M 285.5,146.5 C 324.168,146.333 362.835,146.5 401.5,147C 408.681,151.091 409.348,156.091 403.5,162C 363.5,162.667 323.5,162.667 283.5,162C 277.706,155.94 278.372,150.774 285.5,146.5 Z"/></g>
<g><path style="opacity:1" fill="#202225" d="M 108.5,151.5 C 147.501,151.333 186.501,151.5 225.5,152C 231.462,154.405 232.962,158.571 230,164.5C 228.829,165.893 227.329,166.727 225.5,167C 186.5,167.667 147.5,167.667 108.5,167C 101.889,161.798 101.889,156.631 108.5,151.5 Z"/></g>
<g><path style="opacity:1" fill="#212326" d="M 284.5,176.5 C 323.501,176.333 362.501,176.5 401.5,177C 407.453,179.525 408.953,183.691 406,189.5C 405.097,190.701 403.931,191.535 402.5,192C 363.167,192.667 323.833,192.667 284.5,192C 280.139,189.774 278.639,186.274 280,181.5C 281.366,179.638 282.866,177.972 284.5,176.5 Z"/></g>
<g><path style="opacity:1" fill="#232528" d="M 107.5,181.5 C 147.168,181.333 186.835,181.5 226.5,182C 233.311,187.33 232.977,192.33 225.5,197C 186.833,197.667 148.167,197.667 109.5,197C 102.395,192.645 101.728,187.479 107.5,181.5 Z"/></g>
<g><path style="opacity:1" fill="#212326" d="M 284.5,206.5 C 323.835,206.333 363.168,206.5 402.5,207C 407.752,210.086 408.752,214.253 405.5,219.5C 404.335,220.584 403.002,221.417 401.5,222C 362.5,222.667 323.5,222.667 284.5,222C 277.86,216.705 277.86,211.539 284.5,206.5 Z"/></g>
<g><path style="opacity:1" fill="#242629" d="M 109.5,210.5 C 148.168,210.333 186.835,210.5 225.5,211C 232.681,215.091 233.348,220.091 227.5,226C 187.5,226.667 147.5,226.667 107.5,226C 101.706,219.94 102.372,214.774 109.5,210.5 Z"/></g>
<g><path style="opacity:1" fill="#232528" d="M 283.5,236.5 C 323.501,236.333 363.501,236.5 403.5,237C 409.205,242.814 408.538,247.814 401.5,252C 362.833,252.667 324.167,252.667 285.5,252C 278.453,247.566 277.787,242.399 283.5,236.5 Z"/></g>
<g><path style="opacity:1" fill="#212326" d="M 108.5,240.5 C 147.501,240.333 186.501,240.5 225.5,241C 231.453,243.525 232.953,247.691 230,253.5C 229.097,254.701 227.931,255.535 226.5,256C 187.167,256.667 147.833,256.667 108.5,256C 104.139,253.774 102.639,250.274 104,245.5C 105.366,243.638 106.866,241.972 108.5,240.5 Z"/></g>
<g><path style="opacity:1" fill="#222427" d="M 285.5,265.5 C 324.168,265.333 362.835,265.5 401.5,266C 409.1,270.579 409.433,275.579 402.5,281C 363.167,281.667 323.833,281.667 284.5,281C 280.139,278.774 278.639,275.274 280,270.5C 281.73,268.598 283.563,266.931 285.5,265.5 Z"/></g>
<g><path style="opacity:1" fill="#212326" d="M 108.5,270.5 C 147.835,270.333 187.168,270.5 226.5,271C 233.311,276.33 232.977,281.33 225.5,286C 186.5,286.667 147.5,286.667 108.5,286C 101.86,280.705 101.86,275.539 108.5,270.5 Z"/></g>
<g><path style="opacity:1" fill="#202225" d="M 284.5,295.5 C 323.501,295.333 362.501,295.5 401.5,296C 407.462,298.405 408.962,302.571 406,308.5C 404.829,309.893 403.329,310.727 401.5,311C 362.5,311.667 323.5,311.667 284.5,311C 277.889,305.798 277.889,300.631 284.5,295.5 Z"/></g>
<g><path style="opacity:1" fill="#242629" d="M 107.5,300.5 C 147.501,300.333 187.501,300.5 227.5,301C 233.205,306.814 232.538,311.814 225.5,316C 186.833,316.667 148.167,316.667 109.5,316C 102.453,311.566 101.787,306.399 107.5,300.5 Z"/></g>
<g><path style="opacity:1" fill="#212326" d="M 356.5,327.5 C 371.504,327.333 386.504,327.5 401.5,328C 407.448,330.433 408.948,334.6 406,340.5C 396.285,352.093 386.452,363.593 376.5,375C 385.908,375.082 395.241,375.749 404.5,377C 408.379,381.298 408.379,385.631 404.5,390C 388.567,391.621 372.567,391.954 356.5,391C 351.465,387.987 350.298,383.82 353,378.5C 362.715,366.907 372.548,355.407 382.5,344C 373.833,343.667 365.167,343.333 356.5,343C 351.208,337.835 351.208,332.668 356.5,327.5 Z"/></g>
<g><path style="opacity:1" fill="#232528" d="M 109.5,329.5 C 148.168,329.333 186.835,329.5 225.5,330C 233.1,334.579 233.433,339.579 226.5,345C 187.167,345.667 147.833,345.667 108.5,345C 104.139,342.774 102.639,339.274 104,334.5C 105.73,332.598 107.563,330.931 109.5,329.5 Z"/></g>
<g><path style="opacity:0.984" fill="#202225" d="M 47.5,340.5 C 54.2351,342.618 56.9018,347.285 55.5,354.5C 56.8799,361.765 54.2132,366.432 47.5,368.5C 40.036,366.903 37.3693,362.237 39.5,354.5C 37.3724,346.781 40.039,342.114 47.5,340.5 Z"/></g>
<g><path style="opacity:1" fill="#202225" d="M 108.5,359.5 C 147.501,359.333 186.501,359.5 225.5,360C 231.462,362.405 232.962,366.571 230,372.5C 228.829,373.893 227.329,374.727 225.5,375C 186.5,375.667 147.5,375.667 108.5,375C 101.889,369.798 101.889,364.631 108.5,359.5 Z"/></g>
</svg>
